<?xml version="1.0" encoding="utf-8"?>
<!-- Generator: Adobe Illustrator 23.0.3, SVG Export Plug-In . SVG Version: 6.00 Build 0)  -->
<svg version="1.1" id="Layer_1" xmlns="http://www.w3.org/2000/svg" xmlns:xlink="http://www.w3.org/1999/xlink" x="0px" y="0px"
	 viewBox="0 0 500 500" style="enable-background:new 0 0 500 500;" xml:space="preserve">
<style type="text/css">
	.st0{fill:#1C1C1C;}
</style>
<path class="st0" d="M245,24C119.02,24,16.9,126.12,16.9,252.1S119.02,480.2,245,480.2s228.1-102.12,228.1-228.1S370.98,24,245,24z
	 M329.53,187.54c-23.02-19.25-46.83-28.88-71.44-28.88c-27.12,0-49.96,9.74-68.53,29.22c-18.69,19.37-28.03,43.07-28.03,71.09
	c0,27.69,9.34,51.04,28.03,70.07c18.68,19.03,41.58,28.54,68.7,28.54c14.01,0,25.92-2.28,35.72-6.84c5.47-2.28,11.13-5.35,17-9.23
	c5.87-3.87,12.05-8.54,18.54-14.01v48.02c-22.79,12.88-46.71,19.31-71.78,19.31c-37.71,0-69.9-13.16-96.56-39.48
	c-26.55-26.54-39.82-58.56-39.82-96.04c0-33.61,11.11-63.57,33.33-89.89c27.34-32.24,62.72-48.36,106.13-48.36
	c23.7,0,46.6,6.44,68.7,19.31V187.54z"/>
</svg>
