<?xml version="1.0" encoding="utf-8"?>
<!-- Generator: Adobe Illustrator 23.0.3, SVG Export Plug-In . SVG Version: 6.00 Build 0)  -->
<svg version="1.1" id="Layer_1" xmlns="http://www.w3.org/2000/svg" xmlns:xlink="http://www.w3.org/1999/xlink" x="0px" y="0px"
	 viewBox="0 0 500 500" style="enable-background:new 0 0 500 500;" xml:space="preserve">
<style type="text/css">
	.st0{fill:#1C1C1C;}
</style>
<g>
	<path class="st0" d="M301.28,184.59c-17.43-16.06-43.12-24.1-77.08-24.1h-17.94v189.01h17.94c17.89,0,32.75-1.88,44.6-5.64
		c11.85-3.99,22.56-10.31,32.13-18.97c19.59-17.89,29.39-41.19,29.39-69.9C330.34,226.06,320.65,202.59,301.28,184.59z"/>
	<path class="st0" d="M250,21.9C124.02,21.9,21.9,124.02,21.9,250S124.02,478.1,250,478.1S478.1,375.98,478.1,250
		S375.98,21.9,250,21.9z M327.94,353.44c-14.24,12.53-29.17,21.25-44.78,26.15c-14.58,4.9-35.26,7.35-62.04,7.35h-54.69V123.07
		h55.37c26.54,0,47.51,2.62,62.89,7.86c16.52,5.13,31.5,13.84,44.95,26.15c27.23,24.84,40.84,57.48,40.84,97.92
		C370.5,295.56,356.31,328.37,327.94,353.44z"/>
</g>
</svg>
