<?xml version="1.0" encoding="utf-8"?>
<!-- Generator: Adobe Illustrator 23.0.3, SVG Export Plug-In . SVG Version: 6.00 Build 0)  -->
<svg version="1.1" id="Layer_1" xmlns="http://www.w3.org/2000/svg" xmlns:xlink="http://www.w3.org/1999/xlink" x="0px" y="0px"
	 viewBox="0 0 500 500" style="enable-background:new 0 0 500 500;" xml:space="preserve">
<g>
	<path d="M132.59,213.74c-0.48-2.32-1.23-4.21-2.26-5.67c-1.03-1.46-2.35-2.53-3.96-3.21c-1.62-0.68-3.54-1.03-5.78-1.03h-2.39
		v35.07c5.51,0,9.41-1.28,11.69-3.83c2.28-2.55,3.42-6.86,3.42-12.92C133.3,218.87,133.06,216.06,132.59,213.74z"/>
	<g>
		<path d="M216.56,204.1h-1.98v34.59c5.88,0,9.93-1.18,12.17-3.55c2.28-2.42,3.42-6.7,3.42-12.85c0-6.29-1.09-10.89-3.28-13.81
			C224.69,205.56,221.25,204.1,216.56,204.1z"/>
		<path d="M277.22,212.65c-0.64,6.33-1.46,12.75-2.46,19.24c-1,6.49-2.19,13.39-3.55,20.68l-2.6,13.54h16.88l-3.14-16.82
			C280.25,237.85,278.54,225.63,277.22,212.65z"/>
		<path d="M250,0C111.93,0,0,111.93,0,250s111.93,250,250,250s250-111.93,250-250S388.07,0,250,0z M71.27,297.68H59.99L39.62,192.14
			h14.01l6.36,38.96l1.09,7.04l2.26,15.31c0.36,2.6,0.69,4.97,0.99,7.11c0.3,2.14,0.56,4.08,0.79,5.81l0.68,5.2
			c0.14-1.05,0.25-1.98,0.34-2.8c0.09-0.82,0.18-1.5,0.27-2.05l1.85-12.24l2.39-16.06c0.23-1.46,0.44-2.8,0.65-4.03
			s0.4-2.32,0.58-3.28l6.84-38.96h13.26L71.27,297.68z M137.54,297.68L118.2,246v51.68h-14.22V192.14h18.73
			c7.75,0,13.51,1.85,17.29,5.54c4.79,4.79,7.18,12.1,7.18,21.94c0,7.57-1.26,13.64-3.79,18.22s-6.14,7.42-10.83,8.51l19.41,51.34
			H137.54z M232.55,248.06c-4.15,1.87-10.14,2.8-17.98,2.8v46.83h-14.22V192.14h18.73c9.02,0,15.59,2.28,19.69,6.84
			c4.1,4.6,6.15,11.89,6.15,21.88C244.93,234.89,240.8,243.95,232.55,248.06z M291.51,297.68l-3.96-20.58h-20.92l-4.03,20.58h-13.67
			l22.97-105.55h11.07l22.63,105.55H291.51z M332.35,297.68h-14.22V192.14h14.22V297.68z M402.04,297.68h-13.33l-15.93-47.51
			c-1.46-4.42-2.84-8.96-4.14-13.6s-2.5-9.52-3.59-14.63c-0.09-0.64-0.24-1.41-0.44-2.32c-0.21-0.91-0.44-1.96-0.72-3.14
			c0.14,1.19,0.25,2.2,0.34,3.04c0.09,0.84,0.16,1.56,0.21,2.15l0.75,10.73l0.75,13.06c0.04,0.73,0.08,1.62,0.1,2.67
			c0.02,1.05,0.03,2.23,0.03,3.56l0.75,46.01h-14.01V192.14h13.26l14.15,42.11c4.1,11.89,7.72,24.59,10.87,38.08
			c-1.14-8.16-1.98-15.54-2.53-22.15c-0.55-6.61-0.82-12.83-0.82-18.66v-39.38h14.29V297.68z M444.45,204.58v93.11h-13.95v-93.11
			H414.1v-12.44h46.28v12.44H444.45z"/>
	</g>
</g>
</svg>
