<?xml version="1.0" encoding="utf-8"?>
<!-- Generator: Adobe Illustrator 23.0.3, SVG Export Plug-In . SVG Version: 6.00 Build 0)  -->
<svg version="1.1" id="Layer_1" xmlns="http://www.w3.org/2000/svg" xmlns:xlink="http://www.w3.org/1999/xlink" x="0px" y="0px"
	 viewBox="0 0 500 500" style="enable-background:new 0 0 500 500;" xml:space="preserve">
<style type="text/css">
	.st0{fill:#FFFFFF;}
</style>
<g>
	<path class="st0" d="M132.6,213.7c-0.5-2.3-1.2-4.2-2.3-5.7c-1-1.5-2.3-2.5-4-3.2c-1.6-0.7-3.5-1-5.8-1h-2.4v35.1
		c5.5,0,9.4-1.3,11.7-3.8s3.4-6.9,3.4-12.9C133.3,218.9,133.1,216.1,132.6,213.7z"/>
	<g>
		<path class="st0" d="M216.6,204.1h-2v34.6c5.9,0,9.9-1.2,12.2-3.6c2.3-2.4,3.4-6.7,3.4-12.9c0-6.3-1.1-10.9-3.3-13.8
			C224.7,205.6,221.2,204.1,216.6,204.1z"/>
		<path class="st0" d="M277.2,212.6c-0.6,6.3-1.5,12.8-2.5,19.2s-2.2,13.4-3.5,20.7l-2.6,13.5h16.9l-3.1-16.8
			C280.2,237.9,278.5,225.6,277.2,212.6z"/>
		<path class="st0" d="M250,0C111.9,0,0,111.9,0,250s111.9,250,250,250s250-111.9,250-250S388.1,0,250,0z M71.3,297.7H60L39.6,192.1
			h14l6.4,39l1.1,7l2.3,15.3c0.4,2.6,0.7,5,1,7.1c0.3,2.1,0.6,4.1,0.8,5.8l0.7,5.2c0.1-1,0.2-2,0.3-2.8c0.1-0.8,0.2-1.5,0.3-2
			l1.8-12.2l2.4-16.1c0.2-1.5,0.4-2.8,0.7-4s0.4-2.3,0.6-3.3l6.8-39H92L71.3,297.7z M137.5,297.7L118.2,246v51.7H104V192.1h18.7
			c7.8,0,13.5,1.9,17.3,5.5c4.8,4.8,7.2,12.1,7.2,21.9c0,7.6-1.3,13.6-3.8,18.2s-6.1,7.4-10.8,8.5l19.4,51.3L137.5,297.7
			L137.5,297.7z M232.6,248.1c-4.1,1.9-10.1,2.8-18,2.8v46.8h-14.2V192.1h18.7c9,0,15.6,2.3,19.7,6.8c4.1,4.6,6.1,11.9,6.1,21.9
			C244.9,234.9,240.8,243.9,232.6,248.1z M291.5,297.7l-4-20.6h-20.9l-4,20.6h-13.7l23-105.6H283l22.6,105.6H291.5z M332.4,297.7
			h-14.2V192.1h14.2V297.7z M402,297.7h-13.3l-15.9-47.5c-1.5-4.4-2.8-9-4.1-13.6s-2.5-9.5-3.6-14.6c-0.1-0.6-0.2-1.4-0.4-2.3
			c-0.2-0.9-0.4-2-0.7-3.1c0.1,1.2,0.2,2.2,0.3,3s0.2,1.6,0.2,2.1l0.8,10.7l0.8,13.1c0,0.7,0.1,1.6,0.1,2.7c0,1.1,0,2.2,0,3.6
			l0.8,46h-14V192.1h13.3l14.1,42.1c4.1,11.9,7.7,24.6,10.9,38.1c-1.1-8.2-2-15.5-2.5-22.1c-0.5-6.6-0.8-12.8-0.8-18.7v-39.4H402
			L402,297.7L402,297.7z M444.5,204.6v93.1h-14v-93.1h-16.4v-12.4h46.3v12.4H444.5z"/>
	</g>
</g>
</svg>
